<?xml version="1.0" standalone="yes"?>
<svg xmlns="http://www.w3.org/2000/svg" width="1200" height="1200">
<path style="fill:#47704c; stroke:none;" d="M0 0L0 1200L1200 1200L1200 0L0 0z"/>
<path style="fill:#f5f5f5; stroke:none;" d="M240 120L240 1080L960 1080L960 120L240 120z"/>
<path style="fill:#47704c; stroke:none;" d="M252 132L252 828L948 828L948 132L252 132z"/>
<path style="fill:#f5f5f5; stroke:none;" d="M480 326L480 633L529 633L529 509C534.792 509 544.674 507.102 549.816 510.028C553.634 512.201 555.79 517.431 558.053 521C562.931 528.691 568.002 536.264 572.808 544C585.343 564.176 598.446 584.03 611.308 604C616.664 612.316 621.735 625.161 629.518 631.397C633.566 634.64 642.108 633 647 633L692 633C684.599 617.356 672.072 603.295 662.344 589C643.512 561.326 625.397 532.536 605 506C631.632 504.854 660.492 489.48 674.91 467C696.546 433.265 692.213 378.404 662 351.171C635.339 327.138 598.89 326 565 326L480 326z"/>
<path style="fill:#47704c; stroke:none;" d="M529 371L529 464L573 464C589.445 464 605.454 463.927 620 455.073C647.304 438.453 643.747 391.483 616 377.608C602.744 370.979 588.438 371 574 371L529 371M252 840L252 1068L948 1068L948 840L252 840z"/>
<path style="fill:#f5f5f5; stroke:none;" d="M425 914L425 990L438 990L438 959C450.712 960.979 452.991 981.322 462.326 988.397C466.395 991.48 474.159 990 479 990C472.961 979.153 464.98 969.262 458 959C463.361 957.759 468.813 955.979 472.66 951.815C480.872 942.924 479.809 925.841 469.985 918.638C458.508 910.224 438.449 914 425 914z"/>
<path style="fill:#47704c; stroke:none;" d="M438 925L438 948C444.305 948 453.205 949.586 458.985 946.682C466.226 943.044 467.228 931.623 459.895 927.453C453.619 923.884 444.917 925 438 925z"/>
<path style="fill:#f5f5f5; stroke:none;" d="M539 934.468C518.958 938.249 511.265 964.122 522.638 979.999C529.774 989.961 542.413 992.718 554 990.532C573.686 986.818 581.609 960.729 570.362 945.001C563.235 935.035 550.58 932.283 539 934.468M619 973C616.933 976.543 615.137 980.052 614 984C626.777 989.313 641.024 994.154 655 989.779C665.075 986.626 672.198 976.284 666.558 966.04C662.032 957.82 650.182 957.358 642 955.916C638.798 955.351 633.797 954.85 631.466 952.301C627.84 948.335 635.395 946.258 638 945.878C646.49 944.639 653.091 947.739 661 950C662.338 947.696 664.398 944.845 664.292 942.044C664.089 936.71 655.059 935.195 651 934.464C640.631 932.598 626.557 933.277 619.394 942.043C617.966 943.791 616.892 945.791 616.395 948C612.776 964.095 631.978 966.642 643 968.804C646.303 969.452 650.978 969.883 653.458 972.423C656.267 975.301 652.601 977.633 649.984 978.446C644.407 980.179 638.564 979.735 633 978.243C628.15 976.943 623.807 974.384 619 973M764 982C762.205 978.848 760.112 975.949 758 973C754.23 974.562 750.921 977.155 747 978.377C736.83 981.544 726.138 977.556 723 967L768 967C767.993 957.102 765.804 947.128 757.96 940.329C743.977 928.208 719.504 933.072 711.905 950C710.484 953.166 709.961 956.57 709.619 960C706.588 990.373 744.615 999.68 764 982z"/>
<path style="fill:#47704c; stroke:none;" d="M545 945.529C524.652 947.404 526.149 980.835 547 979.62C568.388 978.374 566.548 943.544 545 945.529M723 956L754 956C748.056 942.526 728.622 941.714 723 956z"/>
</svg>
